<svg width="328" height="108" viewBox="0 0 328 108" fill="none" xmlns="http://www.w3.org/2000/svg">
<g filter="url(#filter0_dd)">
<path d="M119.75 29.06V50H115.55V35.39L110.18 50H106.52L101.15 35.45V50H96.92V29.06H102.05L108.41 44.81L114.65 29.06H119.75ZM133.51 28.52C135.49 28.52 137.28 28.98 138.88 29.9C140.5 30.82 141.77 32.11 142.69 33.77C143.63 35.41 144.1 37.27 144.1 39.35C144.1 41.43 143.63 43.3 142.69 44.96C141.77 46.62 140.5 47.91 138.88 48.83C137.28 49.75 135.49 50.21 133.51 50.21C131.53 50.21 129.73 49.75 128.11 48.83C126.51 47.91 125.24 46.62 124.3 44.96C123.38 43.3 122.92 41.43 122.92 39.35C122.92 37.27 123.38 35.41 124.3 33.77C125.24 32.11 126.51 30.82 128.11 29.9C129.73 28.98 131.53 28.52 133.51 28.52ZM133.51 32.42C132.27 32.42 131.18 32.7 130.24 33.26C129.3 33.82 128.56 34.63 128.02 35.69C127.5 36.73 127.24 37.95 127.24 39.35C127.24 40.75 127.5 41.98 128.02 43.04C128.56 44.08 129.3 44.88 130.24 45.44C131.18 46 132.27 46.28 133.51 46.28C134.75 46.28 135.84 46 136.78 45.44C137.72 44.88 138.45 44.08 138.97 43.04C139.51 41.98 139.78 40.75 139.78 39.35C139.78 37.95 139.51 36.73 138.97 35.69C138.45 34.63 137.72 33.82 136.78 33.26C135.84 32.7 134.75 32.42 133.51 32.42ZM150.251 28.82L155.921 45.59L161.621 28.82H166.151L158.651 50H153.221L145.721 28.82H150.251ZM172.664 28.82V50H168.434V28.82H172.664ZM180.72 32.18V37.67H188.22V40.91H180.72V46.61H189.12V50H176.49V28.82H189.12V32.18H180.72ZM211.925 28.82V32.18H203.015V37.85H210.155V41.09H203.015V50H198.785V28.82H211.925ZM219.011 28.82V50H214.781V28.82H219.011ZM240.778 50H236.548L227.068 35.6V50H222.838V28.82H227.068L236.548 43.34V28.82H240.778V50ZM263.236 39.38C263.236 41.48 262.796 43.33 261.916 44.93C261.036 46.53 259.756 47.78 258.076 48.68C256.416 49.56 254.436 50 252.136 50H244.606V28.82H252.136C254.436 28.82 256.416 29.26 258.076 30.14C259.756 31 261.036 32.23 261.916 33.83C262.796 35.41 263.236 37.26 263.236 39.38ZM251.776 46.22C254.056 46.22 255.816 45.62 257.056 44.42C258.316 43.22 258.946 41.54 258.946 39.38C258.946 37.2 258.316 35.51 257.056 34.31C255.816 33.11 254.056 32.51 251.776 32.51H248.836V46.22H251.776ZM270.632 32.18V37.67H278.132V40.91H270.632V46.61H279.032V50H266.402V28.82H279.032V32.18H270.632ZM293.204 50L288.254 41.75H286.394V50H282.164V28.82H290.234C292.694 28.82 294.564 29.42 295.844 30.62C297.144 31.82 297.794 33.4 297.794 35.36C297.794 36.96 297.344 38.3 296.444 39.38C295.564 40.46 294.284 41.18 292.604 41.54L297.884 50H293.204ZM286.394 38.84H289.874C292.294 38.84 293.504 37.77 293.504 35.63C293.504 34.61 293.204 33.82 292.604 33.26C292.024 32.68 291.114 32.39 289.874 32.39H286.394V38.84Z" fill="white"/>
</g>
<g filter="url(#filter1_d)">
<path d="M42.563 15L55.2609 20.7791L69.6902 28.8699C72.6604 30.5353 74.5 33.6779 74.5 37.0865V37.7312L64.4957 51.6011L47.3323 61.2953C44.0387 63.1557 39.9914 63.0578 36.7913 61.0403L30.25 51.4084V26.6768C30.25 22.6656 32.3733 18.9549 35.8293 16.9264L42.563 15Z" fill="#E65B5B"/>
<path d="M42.563 15L55.2609 20.7791L69.6902 28.8699C72.6604 30.5353 74.5 33.6779 74.5 37.0865V37.7312L64.4957 51.6011L47.3323 61.2953C44.0387 63.1557 39.9914 63.0578 36.7913 61.0403L30.25 51.4084V26.6768C30.25 22.6656 32.3733 18.9549 35.8293 16.9264L42.563 15Z" fill="url(#paint0_linear)"/>
<path d="M59.3776 35.9806C61.5408 37.2392 61.5408 40.3858 59.3776 41.6444L45.9924 49.432C43.8291 50.6906 41.125 49.1174 41.125 46.6002L41.125 31.0249C41.125 28.5076 43.8291 26.9344 45.9923 28.193L59.3776 35.9806Z" fill="white"/>
<path d="M67.5241 27.7015C68.5856 31.7232 70.1468 40.6409 65.6217 43.5645L44.8722 55.4804C46.5665 56.2915 48.2679 56.9399 49.963 57.4506C51.8498 58.019 53.8722 57.6673 55.5804 56.6863L68.8077 49.0902C72.4792 46.9817 74.1157 43.6413 74.4693 39.9576C74.4893 39.544 74.4994 39.1277 74.4994 38.7091C74.4994 37.7668 74.4996 36.9147 74.5 36.0881C74.5012 33.2783 72.971 30.6919 70.5085 29.34L67.5241 27.7015Z" fill="white"/>
<path d="M49.105 60.1783C45.157 59.0922 36.792 56.0031 36.5225 50.6657L36.5564 26.9317C35.0335 27.9835 33.6456 29.1223 32.3783 30.324C30.9676 31.6617 30.2744 33.5728 30.2716 35.5267L30.25 50.6566C30.244 54.8561 32.2868 57.9205 35.252 60.0537C35.5947 60.2764 35.9444 60.4918 36.3011 60.6997C37.0713 61.1487 37.7707 61.5567 38.448 61.9519C40.8917 63.3778 43.9204 63.3467 46.3346 61.8713L49.105 60.1783Z" fill="white"/>
<path d="M30.25 28.0052C33.3062 25.0441 40.0074 19.6202 44.6649 21.9891L65.2664 33.8598C65.1239 32.0063 64.8375 30.2273 64.4353 28.5219C63.9876 26.6238 62.6784 25.0655 60.9823 24.0882L47.8494 16.5209C44.2041 14.4205 40.5074 14.6739 37.1526 16.1968C36.7856 16.3847 36.4214 16.5823 36.0601 16.7898C35.3604 17.1917 34.7182 17.5602 34.098 17.9161C31.7177 19.2818 30.25 21.8166 30.25 24.5614V28.0052Z" fill="white"/>
</g>
<defs>
<filter id="filter0_dd" x="66.92" y="13.52" width="260.964" height="81.69" filterUnits="userSpaceOnUse" color-interpolation-filters="sRGB">
<feFlood flood-opacity="0" result="BackgroundImageFix"/>
<feColorMatrix in="SourceAlpha" type="matrix" values="0 0 0 0 0 0 0 0 0 0 0 0 0 0 0 0 0 0 127 0"/>
<feOffset dy="15"/>
<feGaussianBlur stdDeviation="15"/>
<feColorMatrix type="matrix" values="0 0 0 0 0.85 0 0 0 0 0.34 0 0 0 0 0.34 0 0 0 0.8 0"/>
<feBlend mode="normal" in2="BackgroundImageFix" result="effect1_dropShadow"/>
<feColorMatrix in="SourceAlpha" type="matrix" values="0 0 0 0 0 0 0 0 0 0 0 0 0 0 0 0 0 0 127 0"/>
<feOffset dy="10"/>
<feGaussianBlur stdDeviation="5"/>
<feColorMatrix type="matrix" values="0 0 0 0 0.85 0 0 0 0 0.34 0 0 0 0 0.34 0 0 0 0.3 0"/>
<feBlend mode="normal" in2="effect1_dropShadow" result="effect2_dropShadow"/>
<feBlend mode="normal" in="SourceGraphic" in2="effect2_dropShadow" result="shape"/>
</filter>
<filter id="filter1_d" x="0.25" y="0" width="104.25" height="108" filterUnits="userSpaceOnUse" color-interpolation-filters="sRGB">
<feFlood flood-opacity="0" result="BackgroundImageFix"/>
<feColorMatrix in="SourceAlpha" type="matrix" values="0 0 0 0 0 0 0 0 0 0 0 0 0 0 0 0 0 0 127 0"/>
<feOffset dy="15"/>
<feGaussianBlur stdDeviation="15"/>
<feColorMatrix type="matrix" values="0 0 0 0 0.85 0 0 0 0 0.34 0 0 0 0 0.34 0 0 0 0.5 0"/>
<feBlend mode="normal" in2="BackgroundImageFix" result="effect1_dropShadow"/>
<feBlend mode="normal" in="SourceGraphic" in2="effect1_dropShadow" result="shape"/>
</filter>
<linearGradient id="paint0_linear" x1="73.75" y1="34.6875" x2="32.3125" y2="56.4375" gradientUnits="userSpaceOnUse">
<stop stop-color="#FA7070"/>
<stop offset="1" stop-color="#FA7070" stop-opacity="0"/>
</linearGradient>
</defs>
</svg>
